#define back_width 23
#define back_height 23
static char back_bits[] = {
   0xff, 0xff, 0x7f, 0x01, 0x00, 0x40, 0x01, 0x00, 0x40, 0x01, 0x00, 0x40,
   0x01, 0x02, 0x40, 0x01, 0x03, 0x40, 0x81, 0x03, 0x40, 0xc1, 0x03, 0x40,
   0xe1, 0xff, 0x5f, 0xf1, 0xff, 0x5f, 0xf9, 0xff, 0x5f, 0xfd, 0xff, 0x5f,
   0xf9, 0xff, 0x5f, 0xf1, 0xff, 0x5f, 0xe1, 0xff, 0x5f, 0xc1, 0x03, 0x40,
   0x81, 0x03, 0x40, 0x01, 0x03, 0x40, 0x01, 0x02, 0x40, 0x01, 0x00, 0x40,
   0x01, 0x00, 0x40, 0x01, 0x00, 0x40, 0xff, 0xff, 0x7f};
