#define downright_width 23
#define downright_height 23
static char downright_bits[] = {
   0xff, 0xff, 0x7f, 0x01, 0x00, 0x40, 0x41, 0x00, 0x40, 0xe1, 0x00, 0x40,
   0xf1, 0x01, 0x40, 0xf9, 0x03, 0x40, 0xfd, 0x07, 0x40, 0xf9, 0x0f, 0x40,
   0xf1, 0x1f, 0x40, 0xe1, 0x3f, 0x48, 0xc1, 0x7f, 0x4c, 0x81, 0xff, 0x4e,
   0x01, 0xff, 0x4f, 0x01, 0xfe, 0x4f, 0x01, 0xfc, 0x4f, 0x01, 0xf8, 0x4f,
   0x01, 0xf0, 0x4f, 0x01, 0xf8, 0x4f, 0x01, 0xfc, 0x4f, 0x01, 0xfe, 0x4f,
   0x01, 0x00, 0x40, 0x01, 0x00, 0x40, 0xff, 0xff, 0x7f};
