#define mail_width 23
#define mail_height 23
static char mail_bits[] = {
   0xff, 0xff, 0x7f, 0x01, 0x00, 0x40, 0x01, 0x00, 0x4e, 0x01, 0x00, 0x5f,
   0x01, 0x80, 0x5f, 0x01, 0xc0, 0x5f, 0x01, 0xe0, 0x5f, 0x01, 0xf0, 0x57,
   0x01, 0xf0, 0x53, 0x01, 0xe8, 0x49, 0x01, 0xc4, 0x44, 0x01, 0x22, 0x43,
   0x01, 0x11, 0x40, 0x81, 0x08, 0x40, 0xc1, 0x04, 0x40, 0xc1, 0x03, 0x40,
   0x21, 0x01, 0x40, 0xd1, 0x00, 0x40, 0x39, 0x00, 0x40, 0x05, 0x00, 0x40,
   0x01, 0x00, 0x40, 0x01, 0x00, 0x40, 0xff, 0xff, 0x7f};
