#define plan_width 23
#define plan_height 23
static unsigned char plan_bits[] = {
   0xff, 0xff, 0x7f, 0x01, 0x00, 0x40, 0xe1, 0xff, 0x41, 0x21, 0x10, 0x40,
   0x21, 0x10, 0x40, 0x21, 0xf0, 0x41, 0x21, 0x00, 0x40, 0x21, 0xf0, 0x41,
   0xe1, 0x1f, 0x40, 0x25, 0x10, 0x40, 0x25, 0xf0, 0x4f, 0x3d, 0x00, 0x40,
   0x25, 0xf0, 0x41, 0x25, 0x10, 0x40, 0xe1, 0x1f, 0x4f, 0x21, 0x10, 0x41,
   0x21, 0xf0, 0x41, 0x21, 0x00, 0x41, 0x21, 0x00, 0x4f, 0x21, 0x00, 0x40,
   0xe1, 0xff, 0x41, 0x01, 0x00, 0x40, 0xff, 0xff, 0x7f};
