#define up_width 23
#define up_height 23
static char up_bits[] = {
   0xff, 0xff, 0x7f, 0x01, 0x00, 0x40, 0x01, 0x08, 0x40, 0x01, 0x1c, 0x40,
   0x01, 0x3e, 0x40, 0x01, 0x7f, 0x40, 0x81, 0xff, 0x40, 0xc1, 0xff, 0x41,
   0xe1, 0xff, 0x43, 0xf1, 0xff, 0x47, 0x01, 0x7f, 0x40, 0x01, 0x7f, 0x40,
   0x01, 0x7f, 0x40, 0x01, 0x7f, 0x40, 0x01, 0x7f, 0x40, 0x01, 0x7f, 0x40,
   0x01, 0x7f, 0x40, 0x01, 0x7f, 0x40, 0x01, 0x7f, 0x40, 0x01, 0x7f, 0x40,
   0x01, 0x7f, 0x40, 0x01, 0x00, 0x40, 0xff, 0xff, 0x7f};
