#define upleft_width 23
#define upleft_height 23
static char upleft_bits[] = {
   0xff, 0xff, 0x7f, 0x01, 0x00, 0x40, 0x01, 0x00, 0x40, 0xf9, 0x3f, 0x40,
   0xf9, 0x1f, 0x40, 0xf9, 0x0f, 0x40, 0xf9, 0x07, 0x40, 0xf9, 0x0f, 0x40,
   0xf9, 0x1f, 0x40, 0xf9, 0x3f, 0x40, 0xf9, 0x7f, 0x40, 0xb9, 0xff, 0x40,
   0x19, 0xff, 0x41, 0x09, 0xfe, 0x43, 0x01, 0xfc, 0x47, 0x01, 0xf8, 0x4f,
   0x01, 0xf0, 0x5f, 0x01, 0xe0, 0x4f, 0x01, 0xc0, 0x47, 0x01, 0x80, 0x43,
   0x01, 0x00, 0x41, 0x01, 0x00, 0x40, 0xff, 0xff, 0x7f};
